<?xml version="1.0" standalone="no"?>
<!DOCTYPE svg PUBLIC "-//W3C//DTD SVG 20010904//EN"
 "http://www.w3.org/TR/2001/REC-SVG-20010904/DTD/svg10.dtd">
<svg version="1.0" xmlns="http://www.w3.org/2000/svg"
 width="150.000000pt" height="150.000000pt" viewBox="0 0 150.000000 150.000000"
 preserveAspectRatio="xMidYMid meet">
<metadata>
Created by potrace 1.14, written by Peter Selinger 2001-2017
</metadata>
<g transform="translate(0.000000,150.000000) scale(0.100000,-0.100000)"
fill="#000000" stroke="none">
<path d="M673 1160 c-6 -23 -14 -25 -30 -9 -12 12 -53 -4 -53 -21 0 -6 -8 -10
-19 -10 -22 0 -45 -25 -37 -39 4 -5 -8 -11 -26 -13 -29 -3 -33 -6 -31 -29 1
-19 -5 -30 -23 -38 -31 -14 -31 -39 1 -51 14 -5 25 -17 25 -28 0 -22 19 -42
40 -42 8 0 20 -10 25 -22 6 -14 21 -24 36 -26 17 -2 29 -11 32 -24 5 -18 11
-20 45 -14 30 4 41 2 46 -9 7 -20 46 -19 63 3 10 12 16 14 19 5 8 -19 52 -16
65 5 8 13 20 17 39 14 21 -3 31 1 39 16 6 11 7 23 3 27 -4 4 2 5 14 1 29 -9
54 3 54 25 0 10 7 19 15 19 9 0 20 11 24 24 5 13 19 26 30 29 42 11 34 67 -10
67 -17 0 -17 2 3 35 11 20 18 38 16 40 -3 3 -11 -6 -18 -20 -15 -27 -30 -33
-30 -11 0 8 -5 16 -11 18 -9 3 -8 11 1 28 13 25 12 25 -16 -2 l-29 -27 -21 24
c-16 18 -18 28 -11 42 8 14 4 12 -16 -5 -23 -22 -26 -22 -35 -6 -6 11 -17 15
-35 12 -18 -3 -32 1 -43 13 -21 23 -32 24 -56 3 -16 -16 -18 -16 -24 0 -9 23
-55 21 -61 -4z m47 6 c0 -2 3 -11 6 -19 3 -10 -3 -16 -20 -19 -20 -4 -26 -1
-26 12 0 9 3 20 7 23 7 8 33 10 33 3z m90 -10 c0 -2 2 -11 5 -19 5 -10 -1 -13
-25 -9 -29 4 -37 12 -23 25 7 8 43 10 43 3z m-165 -35 c0 -8 -8 -15 -17 -17
-12 -1 -18 4 -18 18 0 13 6 18 18 16 9 -2 17 -10 17 -17z m238 5 c3 -8 3 -16
0 -19 -9 -10 -33 5 -33 19 0 18 26 18 33 0z m-298 -26 c7 -12 -12 -40 -26 -40
-10 0 -12 34 -2 43 9 10 21 9 28 -3z m299 -26 c31 -15 73 -46 94 -67 l37 -39
-44 -38 c-70 -61 -125 -84 -212 -88 -66 -3 -82 -1 -126 21 -67 34 -127 101
-113 126 20 37 97 92 160 112 48 16 145 3 204 -27z m62 21 c10 -26 0 -37 -20
-22 -11 8 -16 19 -12 25 10 16 26 15 32 -3z m74 -39 c0 -7 -6 -19 -14 -25 -19
-16 -41 10 -24 27 16 16 38 15 38 -2z m-485 -5 c7 -12 -24 -43 -36 -36 -17 11
-10 45 10 45 11 0 22 -4 26 -9z m536 -52 c16 -8 18 -13 8 -25 -13 -15 -54 -20
-44 -5 3 5 1 12 -5 16 -12 7 -4 25 11 25 6 0 19 -5 30 -11z m-590 -16 c-11 -5
-11 -7 0 -14 10 -6 8 -9 -8 -9 -14 0 -23 6 -23 15 0 9 9 15 23 14 12 0 16 -3
8 -6z m44 -81 c-21 -5 -40 12 -30 28 5 8 13 6 27 -7 18 -16 19 -18 3 -21z
m500 28 c3 -5 -1 -10 -10 -10 -9 0 -13 5 -10 10 3 6 8 10 10 10 2 0 7 -4 10
-10z m-37 -48 c2 -7 -7 -12 -23 -12 -24 0 -26 2 -15 15 14 17 31 16 38 -3z
m-408 -19 c0 5 5 5 11 1 7 -4 8 -9 0 -17 -12 -12 -44 10 -35 25 4 6 10 5 15
-3 5 -8 9 -10 9 -6z m340 -18 c0 -18 -24 -30 -40 -20 -8 5 -5 11 7 21 24 18
33 17 33 -1z m-240 -22 c8 -7 -24 -23 -40 -20 -8 1 -16 10 -18 20 -3 15 1 17
25 11 15 -4 30 -9 33 -11z m73 -30 c-7 -18 -37 -13 -41 8 -2 13 3 15 22 12 16
-3 23 -10 19 -20z m85 15 c-3 -7 -13 -13 -23 -13 -10 0 -20 6 -22 13 -3 7 5
12 22 12 17 0 25 -5 23 -12z"/>
<path d="M656 1049 c-33 -26 -34 -67 -4 -121 21 -36 61 -68 87 -68 22 0 81 64
92 100 22 74 -21 132 -74 98 -20 -14 -26 -14 -42 -2 -25 18 -27 18 -59 -7z
m47 -14 c-6 -17 -25 -15 -31 3 -2 7 5 12 17 12 14 0 19 -5 14 -15z m97 5 c0
-5 -9 -14 -19 -19 -14 -8 -20 -7 -24 3 -3 8 -3 17 0 20 10 10 43 7 43 -4z
m-50 -24 c0 -21 -12 -26 -32 -15 -15 8 -17 13 -8 24 13 16 40 9 40 -9z m-56
-11 c18 -14 43 -24 56 -23 31 4 37 -20 8 -27 -36 -9 -79 10 -71 32 5 15 3 16
-8 6 -20 -19 -29 -16 -29 12 0 31 3 31 44 0z m115 -26 c-13 -8 -39 6 -39 21 0
4 10 12 23 17 18 9 23 7 25 -10 2 -11 -2 -23 -9 -28z m11 -13 c0 -3 -4 -8 -10
-11 -5 -3 -10 -1 -10 4 0 6 5 11 10 11 6 0 10 -2 10 -4z m-94 -23 c12 -3 31 0
42 6 16 8 21 7 26 -6 4 -9 3 -19 0 -22 -4 -3 -9 0 -11 7 -3 6 -10 12 -16 12
-8 0 -7 -4 1 -12 19 -19 14 -23 -33 -23 -47 0 -52 4 -33 23 8 8 9 12 1 12 -6
0 -14 -6 -16 -12 -4 -10 -8 -10 -16 2 -13 19 -3 33 18 24 9 -3 26 -9 37 -11z
m24 -53 c0 -5 -9 -10 -20 -10 -11 0 -20 5 -20 10 0 6 9 10 20 10 11 0 20 -4
20 -10z"/>
<path d="M395 821 c-84 -35 -148 -266 -96 -348 18 -29 26 -33 63 -32 43 1 43
1 11 10 -35 10 -53 47 -53 108 0 49 27 148 51 189 10 19 16 39 13 45 -4 7 -3
9 1 4 5 -4 16 0 26 9 28 25 49 11 49 -32 0 -31 2 -35 15 -24 20 17 19 43 -3
63 -20 18 -45 21 -77 8z"/>
<path d="M1147 768 c-31 -183 -40 -278 -27 -292 14 -17 46 -21 54 -7 3 5 -2 8
-12 7 -10 0 -16 6 -16 17 1 9 -3 17 -10 17 -8 0 -8 2 0 8 16 10 53 243 42 265
-13 26 -25 21 -31 -15z"/>
<path d="M699 696 c12 -14 11 -16 -5 -10 -15 6 -17 4 -7 -6 14 -15 46 -5 41
13 -3 6 -13 14 -24 16 -16 3 -17 1 -5 -13z"/>
<path d="M792 658 c-17 -17 -15 -31 6 -59 18 -23 49 -100 36 -86 -4 4 -12 -1
-19 -10 -7 -9 -17 -13 -23 -9 -16 9 -15 38 1 56 10 12 9 12 -4 2 -21 -16 -30
-57 -16 -71 17 -17 60 -14 53 4 -3 8 0 14 7 12 7 -1 13 11 15 30 2 23 -5 40
-27 66 -38 43 -40 61 -6 53 19 -5 23 -3 19 9 -7 18 -26 19 -42 3z"/>
<path d="M889 654 c-11 -13 -10 -19 1 -37 36 -57 43 -78 31 -103 -6 -13 -15
-24 -21 -24 -17 0 -22 27 -10 52 11 22 11 22 -5 3 -23 -29 -16 -69 14 -73 15
-3 30 3 38 14 15 21 18 88 3 79 -5 -3 -7 0 -5 7 3 8 -6 24 -20 36 -28 25 -25
46 6 37 14 -5 17 -3 13 9 -8 20 -28 20 -45 0z"/>
<path d="M505 603 c-4 -27 -13 -58 -21 -70 -9 -14 -10 -24 -4 -28 6 -4 8 -10
6 -14 -3 -4 0 -13 5 -21 8 -13 10 -13 19 0 5 8 12 33 16 55 4 27 18 50 41 73
31 28 36 30 49 17 20 -20 24 -19 24 5 0 29 -38 26 -73 -7 -18 -18 -28 -22 -26
-13 3 19 -10 50 -21 50 -5 0 -12 -21 -15 -47z"/>
<path d="M673 633 c-4 -10 -7 -49 -7 -88 -1 -68 0 -70 25 -73 16 -2 31 4 40
15 13 17 13 17 -5 3 -15 -12 -20 -12 -23 -2 -3 6 -9 10 -14 6 -5 -3 -5 6 1 20
15 41 17 128 3 133 -7 3 -16 -4 -20 -14z"/>
<path d="M991 624 c-29 -37 -29 -107 0 -127 11 -8 29 -12 40 -10 28 8 33 21 5
16 -29 -6 -36 15 -24 74 12 57 58 85 49 30 -1 -5 3 -6 9 -2 7 4 7 12 0 26 -15
27 -55 24 -79 -7z"/>
<path d="M424 464 c-18 -14 -18 -15 4 -4 12 6 22 13 22 15 0 8 -5 6 -26 -11z"/>
<path d="M556 383 c-3 -3 -6 -18 -5 -32 0 -14 3 -20 6 -12 5 11 7 11 14 0 6
-10 9 -6 9 13 0 27 -12 43 -24 31z"/>
<path d="M676 383 c-3 -4 -6 -17 -6 -30 0 -16 6 -23 18 -22 10 0 12 3 5 6 -19
7 -16 31 5 35 15 3 15 4 0 10 -9 4 -19 4 -22 1z"/>
<path d="M726 383 c-3 -3 -6 -18 -5 -32 0 -14 3 -20 6 -12 5 11 7 11 14 0 6
-10 9 -6 9 13 0 27 -12 43 -24 31z"/>
<path d="M794 376 c-3 -9 1 -23 10 -31 9 -9 16 -12 16 -6 0 5 -5 13 -11 17 -8
5 -8 9 1 14 9 5 9 9 1 14 -6 4 -14 0 -17 -8z"/>
<path d="M903 383 c-19 -7 -16 -50 3 -57 14 -5 15 -4 5 8 -9 11 -9 15 1 19 10
4 10 6 -1 6 -11 1 -11 4 -1 16 13 16 13 16 -7 8z"/>
<path d="M944 375 c-3 -8 1 -22 10 -30 9 -9 16 -12 16 -6 0 5 -4 13 -10 16 -5
3 -10 11 -10 16 0 6 5 7 12 3 7 -4 8 -3 4 4 -10 16 -15 15 -22 -3z"/>
<path d="M1174 379 c-3 -6 -1 -16 5 -22 15 -15 14 -30 -1 -21 -7 5 -8 3 -3 -5
5 -9 10 -10 18 -2 8 8 8 14 -1 23 -15 15 -16 31 0 22 7 -4 8 -3 4 4 -9 15 -13
15 -22 1z"/>
<path d="M762 355 c0 -16 2 -22 5 -12 2 9 2 23 0 30 -3 6 -5 -1 -5 -18z"/>
<path d="M851 357 c-1 -25 1 -27 14 -13 8 8 15 21 15 28 0 10 -2 10 -9 -1 -7
-11 -9 -11 -14 0 -3 8 -6 1 -6 -14z"/>
<path d="M990 355 c0 -14 2 -25 4 -25 2 0 6 11 8 25 3 14 1 25 -3 25 -5 0 -9
-11 -9 -25z"/>
<path d="M1026 364 c-10 -25 -7 -30 14 -30 25 0 27 16 3 17 -11 0 -13 3 -5 6
14 5 16 23 3 23 -5 0 -12 -7 -15 -16z"/>
<path d="M1071 353 c0 -16 3 -22 6 -15 4 10 8 10 19 1 11 -9 14 -6 14 17 0 22
-3 26 -10 14 -6 -10 -10 -11 -10 -2 0 6 -4 12 -10 12 -5 0 -10 -12 -9 -27z"/>
<path d="M1130 371 c0 -5 6 -12 13 -14 7 -3 5 -6 -5 -6 -10 -1 -18 -5 -18 -10
0 -6 9 -9 20 -8 21 1 24 6 14 31 -7 17 -24 22 -24 7z"/>
<path d="M594 338 c1 -31 11 -37 20 -12 10 25 7 41 -7 41 -9 0 -14 -11 -13
-29z"/>
</g>
</svg>
